<svg data-v-423bf9ae="" xmlns="http://www.w3.org/2000/svg" viewBox="0 0 955 90" class="iconLeft"><!----><!----><!----><g data-v-423bf9ae="" id="1f72472c-4ad7-40b5-b58b-a010cdc5a36e" fill="#000000" transform="matrix(6.097560882568359,0,0,6.097560882568359,106.3739013671875,-2.682927131652832)"><path d="M1.09 2.90L1.81 2.90L1.81 12.06L7.47 12.06L7.47 12.67L1.09 12.67L1.09 2.90ZM9.28 9.06L9.28 9.06Q9.28 12.13 11.92 12.13L11.92 12.13L11.92 12.13Q14.55 12.13 14.55 9.06L14.55 9.06L14.55 9.06Q14.55 6.04 11.92 6.04L11.92 6.04L11.92 6.04Q9.28 6.04 9.28 9.06L9.28 9.06ZM8.57 9.08L8.57 9.08L8.57 9.08Q8.57 5.43 11.92 5.43L11.92 5.43L11.92 5.43Q15.26 5.43 15.26 9.08L15.26 9.08L15.26 9.08Q15.26 12.74 11.92 12.74L11.92 12.74L11.92 12.74Q8.58 12.74 8.57 9.08ZM22.31 11.85L22.31 12.47L22.31 12.47Q21.42 12.67 20.39 12.67L20.39 12.67L20.39 12.67Q16.77 12.67 16.77 8.95L16.77 8.95L16.77 8.95Q16.77 5.50 20.39 5.50L20.39 5.50L20.39 5.50Q21.42 5.50 22.31 5.70L22.31 5.70L22.31 6.32L22.31 6.32Q21.35 6.11 20.46 6.11L20.46 6.11L20.46 6.11Q17.55 6.11 17.55 8.95L17.55 8.95L17.55 8.95Q17.55 12.06 20.46 12.06L20.46 12.06L20.46 12.06Q21.35 12.06 22.31 11.85L22.31 11.85ZM23.57 10.64L23.57 10.64L23.57 10.64Q23.57 8.50 26.41 8.50L26.41 8.50L26.41 8.50Q27.42 8.50 28.56 8.64L28.56 8.64L28.56 7.76L28.56 7.76Q28.56 6.11 26.49 6.11L26.49 6.11L26.49 6.11Q25.31 6.11 24.15 6.45L24.15 6.45L24.15 5.84L24.15 5.84Q25.31 5.50 26.49 5.50L26.49 5.50L26.49 5.50Q29.28 5.50 29.28 7.72L29.28 7.72L29.28 12.67L28.84 12.67L28.68 11.96L28.68 11.96Q27.33 12.67 26.07 12.67L26.07 12.67L26.07 12.67Q23.57 12.67 23.57 10.64ZM26.41 9.12L26.41 9.12L26.41 9.12Q24.29 9.12 24.29 10.62L24.29 10.62L24.29 10.62Q24.29 12.06 26.07 12.06L26.07 12.06L26.07 12.06Q27.38 12.06 28.56 11.36L28.56 11.36L28.56 9.26L28.56 9.26Q27.42 9.12 26.41 9.12ZM31.60 2.90L32.32 2.90L32.32 12.67L31.60 12.67L31.60 2.90ZM42.09 12.67L38.06 12.67L38.06 2.90L42.23 2.90L42.23 2.90Q45.02 2.90 45.02 5.17L45.02 5.17L45.02 5.17Q45.02 6.84 43.00 7.56L43.00 7.56L43.00 7.56Q45.14 7.92 45.14 9.85L45.14 9.85L45.14 9.85Q45.14 12.67 42.09 12.67L42.09 12.67ZM38.78 12.06L42.01 12.06L42.01 12.06Q44.38 12.06 44.38 9.87L44.38 9.87L44.38 9.87Q44.38 7.94 41.42 7.94L41.42 7.94L40.87 7.94L40.87 7.45L40.87 7.45Q44.29 7.14 44.29 5.22L44.29 5.22L44.29 5.22Q44.29 3.51 42.18 3.51L42.18 3.51L38.78 3.51L38.78 12.06ZM46.74 10.64L46.74 10.64L46.74 10.64Q46.74 8.50 49.59 8.50L49.59 8.50L49.59 8.50Q50.59 8.50 51.73 8.64L51.73 8.64L51.73 7.76L51.73 7.76Q51.73 6.11 49.66 6.11L49.66 6.11L49.66 6.11Q48.49 6.11 47.33 6.45L47.33 6.45L47.33 5.84L47.33 5.84Q48.49 5.50 49.66 5.50L49.66 5.50L49.66 5.50Q52.45 5.50 52.45 7.72L52.45 7.72L52.45 12.67L52.01 12.67L51.85 11.96L51.85 11.96Q50.50 12.67 49.24 12.67L49.24 12.67L49.24 12.67Q46.74 12.67 46.74 10.64ZM49.59 9.12L49.59 9.12L49.59 9.12Q47.46 9.12 47.46 10.62L47.46 10.62L47.46 10.62Q47.46 12.06 49.24 12.06L49.24 12.06L49.24 12.06Q50.55 12.06 51.73 11.36L51.73 11.36L51.73 9.26L51.73 9.26Q50.59 9.12 49.59 9.12ZM55.36 12.67L54.64 12.67L54.64 5.50L55.15 5.50L55.24 6.41L55.24 6.41Q56.62 5.50 57.93 5.50L57.93 5.50L57.93 5.50Q60.55 5.50 60.55 7.76L60.55 7.76L60.55 12.67L59.83 12.67L59.83 7.74L59.83 7.74Q59.83 6.14 57.90 6.14L57.90 6.14L57.90 6.14Q56.61 6.14 55.36 7.05L55.36 7.05L55.36 12.67ZM67.97 11.76L67.97 6.48L67.97 6.48Q66.93 6.11 65.81 6.11L65.81 6.11L65.81 6.11Q63.16 6.11 63.16 8.89L63.16 8.89L63.16 8.89Q63.16 12.03 65.81 12.03L65.81 12.03L65.81 12.03Q66.93 12.03 67.97 11.76L67.97 11.76ZM68.69 2.90L68.69 12.24L68.69 12.24Q67.52 12.67 65.74 12.67L65.74 12.67L65.74 12.67Q62.40 12.67 62.40 8.94L62.40 8.94L62.40 8.94Q62.40 5.50 65.80 5.50L65.80 5.50L65.80 5.50Q66.87 5.50 67.97 5.84L67.97 5.84L67.97 2.90L68.69 2.90ZM70.74 12.33L70.74 12.33L70.74 11.65L70.74 11.65Q71.93 12.06 73.09 12.06L73.09 12.06L73.09 12.06Q75.35 12.06 75.35 10.62L75.35 10.62L75.35 10.62Q75.35 9.46 73.68 9.46L73.68 9.46L72.76 9.46L72.76 9.46Q70.51 9.46 70.51 7.55L70.51 7.55L70.51 7.55Q70.51 5.50 73.49 5.50L73.49 5.50L73.49 5.50Q74.64 5.50 75.84 5.84L75.84 5.84L75.84 6.52L75.84 6.52Q74.64 6.11 73.49 6.11L73.49 6.11L73.49 6.11Q71.22 6.11 71.22 7.55L71.22 7.55L71.22 7.55Q71.22 8.78 72.76 8.78L72.76 8.78L73.68 8.78L73.68 8.78Q76.07 8.78 76.07 10.62L76.07 10.62L76.07 10.62Q76.07 12.67 73.09 12.67L73.09 12.67L73.09 12.67Q71.93 12.67 70.74 12.33ZM82.05 12.06L84.75 12.06L84.75 12.06Q88.82 12.06 88.82 7.52L88.82 7.52L88.82 7.52Q88.82 3.51 84.75 3.51L84.75 3.51L82.05 3.51L82.05 12.06ZM84.75 12.67L81.33 12.67L81.33 2.90L84.82 2.90L84.82 2.90Q89.61 2.90 89.61 7.52L89.61 7.52L89.61 7.52Q89.61 12.67 84.75 12.67L84.75 12.67ZM90.97 10.64L90.97 10.64L90.97 10.64Q90.97 8.50 93.82 8.50L93.82 8.50L93.82 8.50Q94.82 8.50 95.96 8.64L95.96 8.64L95.96 7.76L95.96 7.76Q95.96 6.11 93.89 6.11L93.89 6.11L93.89 6.11Q92.72 6.11 91.55 6.45L91.55 6.45L91.55 5.84L91.55 5.84Q92.72 5.50 93.89 5.50L93.89 5.50L93.89 5.50Q96.68 5.50 96.68 7.72L96.68 7.72L96.68 12.67L96.24 12.67L96.08 11.96L96.08 11.96Q94.73 12.67 93.47 12.67L93.47 12.67L93.47 12.67Q90.97 12.67 90.97 10.64ZM93.82 9.12L93.82 9.12L93.82 9.12Q91.69 9.12 91.69 10.62L91.69 10.62L91.69 10.62Q91.69 12.06 93.47 12.06L93.47 12.06L93.47 12.06Q94.78 12.06 95.96 11.36L95.96 11.36L95.96 9.26L95.96 9.26Q94.82 9.12 93.82 9.12ZM98.84 10.74L98.84 4.33L99.35 4.33L99.48 5.50L101.63 5.50L101.63 6.11L99.54 6.11L99.54 10.64L99.54 10.64Q99.54 12.06 100.58 12.06L100.58 12.06L101.63 12.06L101.63 12.67L100.59 12.67L100.59 12.67Q98.84 12.67 98.84 10.74L98.84 10.74ZM102.74 10.64L102.74 10.64L102.74 10.64Q102.74 8.50 105.59 8.50L105.59 8.50L105.59 8.50Q106.59 8.50 107.73 8.64L107.73 8.64L107.73 7.76L107.73 7.76Q107.73 6.11 105.66 6.11L105.66 6.11L105.66 6.11Q104.49 6.11 103.33 6.45L103.33 6.45L103.33 5.84L103.33 5.84Q104.49 5.50 105.66 5.50L105.66 5.50L105.66 5.50Q108.45 5.50 108.45 7.72L108.45 7.72L108.45 12.67L108.01 12.67L107.85 11.96L107.85 11.96Q106.50 12.67 105.24 12.67L105.24 12.67L105.24 12.67Q102.74 12.67 102.74 10.64ZM105.59 9.12L105.59 9.12L105.59 9.12Q103.46 9.12 103.46 10.62L103.46 10.62L103.46 10.62Q103.46 12.06 105.24 12.06L105.24 12.06L105.24 12.06Q106.55 12.06 107.73 11.36L107.73 11.36L107.73 9.26L107.73 9.26Q106.59 9.12 105.59 9.12ZM111.36 6.55L111.36 11.83L111.36 11.83Q112.46 12.03 113.35 12.03L113.35 12.03L113.35 12.03Q116.15 12.03 116.15 8.89L116.15 8.89L116.15 8.89Q116.15 6.18 113.57 6.18L113.57 6.18L113.57 6.18Q112.59 6.18 111.36 6.55L111.36 6.55ZM110.64 12.38L110.64 2.90L111.36 2.90L111.36 5.84L111.36 5.84Q112.65 5.50 113.58 5.50L113.58 5.50L113.58 5.50Q116.85 5.50 116.85 8.94L116.85 8.94L116.85 8.94Q116.85 12.67 113.41 12.67L113.41 12.67L113.41 12.67Q111.86 12.67 110.64 12.38L110.64 12.38ZM118.28 10.64L118.28 10.64L118.28 10.64Q118.28 8.50 121.13 8.50L121.13 8.50L121.13 8.50Q122.13 8.50 123.27 8.64L123.27 8.64L123.27 7.76L123.27 7.76Q123.27 6.11 121.20 6.11L121.20 6.11L121.20 6.11Q120.03 6.11 118.86 6.45L118.86 6.45L118.86 5.84L118.86 5.84Q120.03 5.50 121.20 5.50L121.20 5.50L121.20 5.50Q123.99 5.50 123.99 7.72L123.99 7.72L123.99 12.67L123.55 12.67L123.39 11.96L123.39 11.96Q122.04 12.67 120.78 12.67L120.78 12.67L120.78 12.67Q118.28 12.67 118.28 10.64ZM121.13 9.12L121.13 9.12L121.13 9.12Q119 9.12 119 10.62L119 10.62L119 10.62Q119 12.06 120.78 12.06L120.78 12.06L120.78 12.06Q122.09 12.06 123.27 11.36L123.27 11.36L123.27 9.26L123.27 9.26Q122.13 9.12 121.13 9.12ZM126.04 12.33L126.04 12.33L126.04 11.65L126.04 11.65Q127.24 12.06 128.39 12.06L128.39 12.06L128.39 12.06Q130.66 12.06 130.66 10.62L130.66 10.62L130.66 10.62Q130.66 9.46 128.98 9.46L128.98 9.46L128.06 9.46L128.06 9.46Q125.81 9.46 125.81 7.55L125.81 7.55L125.81 7.55Q125.81 5.50 128.80 5.50L128.80 5.50L128.80 5.50Q129.94 5.50 131.14 5.84L131.14 5.84L131.14 6.52L131.14 6.52Q129.94 6.11 128.80 6.11L128.80 6.11L128.80 6.11Q126.53 6.11 126.53 7.55L126.53 7.55L126.53 7.55Q126.53 8.78 128.06 8.78L128.06 8.78L128.98 8.78L128.98 8.78Q131.37 8.78 131.37 10.62L131.37 10.62L131.37 10.62Q131.37 12.67 128.39 12.67L128.39 12.67L128.39 12.67Q127.24 12.67 126.04 12.33ZM136.11 5.50L136.11 5.50L136.11 5.50Q139.06 5.50 139.06 8.76L139.06 8.76L139.06 8.76Q139.06 8.99 139.04 9.24L139.04 9.24L133.59 9.24L133.59 9.24Q133.59 12.06 136.58 12.06L136.58 12.06L136.58 12.06Q137.80 12.06 138.75 11.72L138.75 11.72L138.75 12.33L138.75 12.33Q137.80 12.67 136.58 12.67L136.58 12.67L136.58 12.67Q132.88 12.67 132.88 9.00L132.88 9.00L132.88 9.00Q132.88 5.50 136.11 5.50ZM133.59 8.60L133.59 8.60L138.37 8.60L138.37 8.60Q138.33 6.10 136.11 6.10L136.11 6.10L136.11 6.10Q133.72 6.10 133.59 8.60Z"></path></g><defs data-v-423bf9ae=""><linearGradient data-v-423bf9ae="" gradientTransform="rotate(25)" id="bb9368dd-9435-4151-a455-ddc7a61b4a9c" x1="0%" y1="0%" x2="100%" y2="0%"><stop data-v-423bf9ae="" offset="0%" style="stop-color: rgb(106, 79, 76); stop-opacity: 1;"></stop><stop data-v-423bf9ae="" offset="100%" style="stop-color: rgb(160, 162, 155); stop-opacity: 1;"></stop></linearGradient></defs><g data-v-423bf9ae="" id="8b4664a5-109a-4e0d-b8f7-e9d7de5dda86" transform="matrix(1.0553901195526123,0,0,1.0553901195526123,-5.848452091217041,-6.380154609680176)" stroke="none" fill="url(#bb9368dd-9435-4151-a455-ddc7a61b4a9c)"><path d="M90.012 8.518l-.213-.358c.754-.475.68-.716.68-.716s-.371-1.008-1.446-.368c-1.07.645-.359 1.449-.359 1.449s.179.177.943-.256l.198.336-2.272 1.21-.194-.33c.752-.474.68-.716.68-.716s-.373-1.007-1.449-.368c-1.07.646-.357 1.449-.357 1.449s.176.179.941-.255l.193.321-2.185 1.163-.223-.371c.754-.475.682-.717.682-.717s-.373-1.007-1.448-.368c-1.07.645-.359 1.449-.359 1.449s.176.178.942-.255l.217.364c-.719.382-1.465.78-2.203 1.174l-.191-.321c.752-.476.68-.717.68-.717s-.373-1.008-1.447-.369c-1.071.646-.36 1.449-.36 1.449s.181.179.942-.255l.188.313-2.229 1.188-.184-.309c.756-.474.682-.717.682-.717s-.373-1.007-1.446-.367c-1.07.645-.36 1.449-.36 1.449s.178.177.944-.256l.178.3c-.889.473-1.668.891-2.25 1.203l-.163-.276c.752-.474.68-.716.68-.716s-.371-1.008-1.447-.368c-1.072.646-.361 1.449-.361 1.449s.178.179.945-.256l.158.27-.728.393c-1.452.796-1.834 1.106-1.557 1.833.276.726.006 1.458.004 1.459-.019.017-.039.038-.067.065-.412.398-1.847 1.791-2.601 2.522l-5.744 5.57-7.28 7.063c-2.482 2.406-4.964 4.812-7.443 7.219-2.711 2.632-5.445 5.242-8.146 7.884-.792.777-1.509 1.578-2.731 1.3-1.091-.248-1.995-1.252-2.408-2.262-.864-2.111-.087-4.4 1.277-6.1.654-.814 2.151-2.124 1.152-3.208-1.601-1.735-4.646.403-5.986 1.482-3.238 2.61-4.645 6.029-6.514 9.59-.941 1.793-2.085 3.495-3.719 4.729-1.622 1.227-3.445 1.68-5.325 2.33-1.157.4-2.299.843-3.415 1.35-4.167 1.893-8.674 4.944-10.038 9.568-.666 2.254-.365 4.602.518 6.752a21.323 21.323 0 0 0 1.633 3.169c2.504 4.021 6.03 7.591 9.594 10.687 1.744 1.516 3.716 2.902 5.998 3.433 2.748.64 5.819.075 8.257-1.304 4.857-2.748 7.449-11.631 7.449-11.631.331-1.062.659-2.125 1.084-3.151.761-1.835 1.89-3.381 3.572-4.47.83-.536 1.724-.965 2.616-1.385 1.091-.513 2.185-.951 3.218-1.578 1.552-.942 2.993-2.17 3.803-3.828.233-.481.535-1.123.554-1.68.024-.802-.316-1.828-1.226-1.978-.925-.151-1.677.542-2.418.978-.938.551-1.959 1.016-3.05 1.148-.927.113-1.769-.264-2.491-.821-.949-.733-2.045-2.18-2.075-3.456-.002-.117-.037-.197.058-.296.031-.032 31.75-32.822 34.772-35.844 3.025-3.025 5.549-1.503 5.549-1.503 1.695-1.659 3.891-5.41 4.787-6.793.9-1.382 2.18.242 3.732-.587 1.557-.83 2.594-3.111 1.16-4.685-1.197-1.311-2.986-.729-3.552-.495zm-50.45 44.193c.634 2.104 1.523 4.114 2.426 6.113.977 2.164 1.793 4.693 4.342 5.422.582.165 1.287.279 1.893.234 1.5-.107 2.794-.832 4.039-1.621.273-.174.856-.709 1.129-.312.272.395-.068 1.227-.246 1.584-.412.834-1.125 1.508-1.836 2.09-2.394 1.959-5.368 2.723-7.919 4.389-1.292.844-2.149 2.062-2.807 3.438-1.059 2.212-1.905 4.525-2.801 6.807-.133.34-.267.681-.402 1.021-.433 1.096-.893 2.146-1.466 3.178-.479.862-1.409 2.461-2.663 2.19-.46-.101-.777-.562-.967-.962-.458-.963-.432-2.133-.441-3.174-.011-1.269-.348-2.601-.88-3.748-.471-1.016-1.133-1.898-1.878-2.717-.734-.809-1.549-1.554-2.335-2.301-1.191-1.132-2.299-2.355-3.537-3.438-.816-.719-1.987-1.611-2.306-2.711-.793-2.731 1.656-5.295 3.748-6.607a15.75 15.75 0 0 1 2.111-1.086c2.567-1.109 5.087-2.314 7.129-4.273 1.232-1.184 2.043-2.559 2.991-3.955.268-.393.568-.847 1.031-1.022 1.034-.4 1.41.686 1.645 1.461z"></path><circle cx="33.902" cy="84.067" r="1.434"></circle><circle cx="33.463" cy="79.112" r="1.435"></circle><circle cx="32.081" cy="74.273" r="1.434"></circle><path d="M35.811 65.986a1.038 1.038 0 0 1 0 1.469 1.043 1.043 0 0 1-1.47 0l-4.077-4.078a1.038 1.038 0 1 1 1.469-1.47l4.078 4.079zM31.011 70.988a1.037 1.037 0 0 1-.271 1.443 1.041 1.041 0 0 1-1.444-.271L26.04 67.4a1.039 1.039 0 1 1 1.716-1.172l3.255 4.76zM40.615 61.182a1.04 1.04 0 0 1-1.469 1.469l-4.078-4.077a1.038 1.038 0 1 1 1.469-1.47l4.078 4.078z"></path></g><!----></svg>